<svg width="90" height="62" viewBox="0 0 90 62" fill="none" xmlns="http://www.w3.org/2000/svg">
<g clip-path="url(#clip0_1_62)">
<path d="M13.2825 37.4349H0V36.0626C0 35.7195 0.294078 35.4254 0.588156 35.4254H12.2533C12.8414 35.4254 13.2825 35.9155 13.2825 36.5037V37.4349ZM10.8319 31.7494H0V30.328C0 29.985 0.294078 29.7399 0.637169 29.7399H11.9102V30.7202C11.9102 31.2593 11.42 31.7494 10.8319 31.7494ZM0 24.0054H13.0865V24.9856C13.0865 25.5738 12.6454 26.0149 12.0572 26.0149H0.637169C0.294078 26.0149 0 25.7698 0 25.4267L0 24.0054Z" fill="#FEFEFE"/>
<path d="M28.6236 37.4349H26.8101C28.2805 34.6902 32.1525 27.3873 33.5739 24.7896C33.819 24.2994 34.3091 24.0054 34.8483 24.0054H36.3186C36.3186 24.0544 29.4078 36.9938 29.4568 36.9938C29.2608 37.2879 28.9667 37.4349 28.6236 37.4349ZM25.1927 34.053L19.8503 24.0054H21.3207C21.8598 24.0054 22.3499 24.2994 22.644 24.7896C26.467 31.9455 25.8789 30.8672 26.0259 31.1613C26.271 31.6024 26.271 32.0925 26.0259 32.4846L25.1927 34.053Z" fill="#FEFEFE"/>
<path d="M46.8074 25.0837V37.4349H45.7291C45.1409 37.4349 44.6998 36.9938 44.6998 36.4057V24.0054H45.7291C46.3173 24.0054 46.8074 24.4955 46.8074 25.0837Z" fill="#FEFEFE"/>
<path d="M66.5596 30.7202C66.5596 28.1225 64.305 26.0149 61.6093 26.0149C58.8646 26.0149 56.659 28.1225 56.659 30.7202C56.659 33.3178 58.8646 35.4254 61.6093 35.4254C64.305 35.4254 66.5596 33.3178 66.5596 30.7202ZM68.6182 30.7202C68.6182 34.4451 65.4323 37.4349 61.6093 37.4349C57.7373 37.4349 54.6005 34.4451 54.6005 30.7202C54.6005 27.0442 57.7373 24.0054 61.6093 24.0054C65.4323 24.0054 68.6182 27.0442 68.6182 30.7202Z" fill="#FEFEFE"/>
<path d="M73.3235 31.7494V24.0054H75.284C75.5291 24.0054 75.7251 24.1524 75.8722 24.2994L83.8613 34.5922V25.0837C83.8613 24.4955 84.3514 24.0054 84.9396 24.0054H86.0179V37.4349H84.0083C83.8123 37.4349 83.5672 37.3369 83.4202 37.1409L75.4801 26.8971V30.7202C75.4801 31.2593 74.9899 31.7494 74.4018 31.7494H73.3235Z" fill="#FEFEFE"/>
<path fill-rule="evenodd" clip-rule="evenodd" d="M45.7291 2.39053C57.8844 2.39053 68.0791 9.54642 72.1472 20.2313C72.6373 21.5546 73.5685 21.4076 74.4508 21.4076H74.9409C74.7939 20.8684 74.5978 20.3783 74.4018 19.8882C69.9906 8.37011 58.8156 0.0869141 45.7291 0.0869141C32.0545 0.0869141 20.4874 9.05629 16.5664 21.4076H17.3506C18.4289 21.4566 18.919 21.2605 19.3111 20.4273C23.4282 9.88951 33.721 2.39053 45.7291 2.39053Z" fill="#FEFEFE"/>
<path fill-rule="evenodd" clip-rule="evenodd" d="M45.7291 59.0496C57.8844 59.0496 68.0791 51.8937 72.1472 41.2088C72.6373 39.8855 73.5685 40.0815 74.4508 40.0815H74.9409C74.7939 40.5717 74.5978 41.1108 74.4018 41.6009C69.9906 53.119 58.8156 61.3532 45.7291 61.3532C32.0545 61.3532 20.4874 52.4328 16.5664 40.0815H17.3506C18.4289 40.0325 18.919 40.2286 19.3111 41.0128C23.4282 51.5996 33.721 59.0496 45.7291 59.0496Z" fill="#FEFEFE"/>
<path d="M88.5665 27.5833C88.2234 27.5833 87.9784 27.5343 87.7823 27.4363C87.5372 27.3383 87.3902 27.1912 87.2922 26.9952C87.1451 26.7991 87.0961 26.554 87.0961 26.26V25.3777C87.0961 25.1327 87.1451 24.8386 87.2922 24.6425C87.3902 24.4465 87.5372 24.2994 87.7823 24.2014C87.9784 24.0544 88.2234 24.0054 88.5665 24.0054C88.8606 24.0054 89.1057 24.0544 89.3507 24.2014C89.5468 24.2994 89.7428 24.4465 89.8409 24.6425C89.9389 24.8386 89.9879 25.1327 89.9879 25.3777V26.26C89.9879 26.554 89.9389 26.7991 89.8409 26.9952C89.7428 27.1912 89.5468 27.3383 89.3507 27.4363C89.1057 27.5343 88.8606 27.5833 88.5665 27.5833ZM87.9784 24.8876H88.3705V26.7011H87.9784V24.8876ZM88.4685 26.0149L88.8116 25.8189L89.2527 26.7011H88.8116L88.4685 26.0149ZM88.5665 27.1422C88.7626 27.1422 88.9586 27.1422 89.1057 27.0442C89.2527 26.9952 89.3997 26.8971 89.4488 26.7501C89.5468 26.6031 89.5958 26.456 89.5958 26.26V25.3777C89.5958 25.1817 89.5468 25.0346 89.4488 24.8876C89.3997 24.7406 89.2527 24.5935 89.1057 24.5445C88.9586 24.4465 88.7626 24.4465 88.5665 24.4465C88.3215 24.4465 88.1744 24.4465 87.9784 24.5445C87.8313 24.5935 87.7333 24.7406 87.6353 24.8876C87.5863 25.0346 87.5372 25.1817 87.5372 25.3777V26.26C87.5372 26.456 87.5863 26.6031 87.6353 26.7501C87.7333 26.8971 87.8313 26.9952 87.9784 27.0442C88.1744 27.1422 88.3215 27.1422 88.5665 27.1422ZM88.2724 25.7698H88.5665C88.6155 25.7698 88.7136 25.7698 88.7136 25.7208C88.7626 25.6718 88.8116 25.6228 88.8116 25.5248C88.8116 25.4267 88.7626 25.3777 88.7136 25.3287C88.7136 25.2797 88.6155 25.2797 88.5665 25.2797H88.2724V24.8876H88.5665C88.7626 24.8876 88.9096 24.9366 89.0566 25.0837C89.1547 25.1817 89.2037 25.3287 89.2037 25.5248C89.2037 25.7208 89.1547 25.8679 89.0076 25.9659C88.9096 26.0639 88.7626 26.1129 88.5665 26.1129H88.2724V25.7698Z" fill="#FEFEFE"/>
</g>
<defs>
<clipPath id="clip0_1_62">
<rect width="89.9879" height="61.44" fill="white"/>
</clipPath>
</defs>
</svg>
